PathFileType	4	(X/Y/Z)	C:\Users\WrightLab\Desktop\Jo\P1_boxCal20.trc
DataRate	CameraRate	NumFrames	NumMarkers	Units	OrigDataRate	OrigDataStartFrame	OrigNumFrames
100.00	100.00	       14	19	mm	100.00	586	       937
Frame#	Time	Headset_Front			Headset_Back			Headset_Left			Headset_Right			Left_Shoulder			Right_Shoulder			Sternum			C7			Left Elbow			Right Elbow			Left Wrist			Right Wrist			Left ASIS			Right ASIS			S2			Left Knee			Right Knee			Left Ankle			Right Ankle			
		X1	Y1	Z1	X2	Y2	Z2	X3	Y3	Z3	X4	Y4	Z4	X5	Y5	Z5	X6	Y6	Z6	X7	Y7	Z7	X8	Y8	Z8	X9	Y9	Z9	X10	Y10	Z10	X11	Y11	Z11	X12	Y12	Z12	X13	Y13	Z13	X14	Y14	Z14	X15	Y15	Z15	X16	Y16	Z16	X17	Y17	Z17	X18	Y18	Z18	X19	Y19	Z19	

586	5.850	-496.88281	1413.42761	240.07953	-688.99078	1516.98206	293.47946	-703.03931	1430.64880	147.94629	-513.65594	1352.28101	103.20464	-779.21716	1279.10498	140.21321	-547.80176	1274.62671	428.06818				-768.40314	1305.76563	352.99490	-732.91113	975.11676	44.20432	-544.46582	1011.47021	547.84906	-537.24005	875.70709	-30.04333	-450.45190	774.57404	519.51080	-664.66620	885.91559	150.81786	-542.86316	875.30780	308.62872	-842.63495	927.86926	440.45947	-808.42194	453.20682	176.02777	-493.87747	492.74408	369.12827	-808.07330	84.52353	240.19781				
587	5.860	-493.02414	1412.57507	235.37575	-685.56592	1516.42529	286.91013	-697.64349	1429.22473	143.38995	-509.29318	1351.56604	98.05209	-773.33002	1279.25891	134.54964	-545.69812	1275.54712	424.72400				-765.59894	1306.68628	346.86423	-727.13495	974.78583	39.58296	-543.66437	1012.75653	544.28070	-531.63678	874.22595	-33.62365	-450.24640	775.00909	518.96082	-660.98450	886.41223	148.01811	-537.69019	877.13019	306.50952	-841.15039	929.56360	435.73868	-806.86914	453.65640	172.74232	-495.83499	492.40399	365.48486	-807.92017	84.69791	240.00487				
588	5.870	-488.76736	1412.84668	229.97186	-680.98212	1516.82568	282.41498	-694.04578	1429.88257	137.40381	-504.86755	1350.92896	93.61954	-767.88440	1279.01526	128.80804	-543.02814	1275.35730	421.02420				-761.89819	1306.70581	340.75906	-720.77551	974.91034	33.76222	-542.68195	1013.46655	541.64862	-525.54974	872.79144	-37.33621	-449.84680	775.28430	518.15173	-657.40070	886.05127	145.75845	-535.78564	877.23700	303.68936	-839.71106	930.81628	431.21640	-804.91791	453.62283	170.70454	-495.89090	492.69186	362.89514	-807.76563	84.79478	239.84668				
589	5.880	-484.38577	1412.01440	225.92931	-676.81067	1516.83496	276.55576	-689.02490	1429.13611	132.57402	-499.84967	1350.02478	89.15675	-762.25079	1278.99487	122.32082	-540.85132	1275.48865	417.15106				-758.65326	1307.29504	334.73465	-714.08405	974.92297	29.42082	-541.93060	1013.85541	539.01868	-519.90344	871.27881	-40.27160	-450.20584	776.03534	516.13361	-654.03052	886.34851	142.66757	-533.58411	876.65088	301.32315	-837.66718	931.85107	426.45190	-802.49054	453.54016	167.96748	-496.52960	491.75629	361.69070	-807.66376	84.81241	239.71964				
590	5.890	-480.43582	1412.05774	222.03685	-672.45850	1516.58398	271.34122	-684.27161	1428.23840	127.76793	-495.62973	1348.62024	84.58755	-756.84570	1278.62158	117.09964	-538.40851	1275.64966	413.46426				-755.25958	1307.73474	328.97012	-707.35309	974.85010	24.30478	-540.69342	1014.41895	536.42633	-513.82617	869.66046	-43.87571	-449.33871	775.70148	515.40070	-650.41199	885.94952	140.39383	-534.13245	875.36523	298.46692	-835.32843	932.74103	421.96271	-800.41840	452.79132	166.87563	-498.22250	490.31833	359.72620	-807.47229	84.87366	239.41751				
591	5.900	-476.39423	1410.76147	217.05127	-668.91132	1517.81213	266.34924	-680.06787	1428.01965	121.63110	-491.15472	1347.67468	80.44035	-750.77460	1278.32446	111.68369	-535.81958	1275.63037	409.77853				-752.29303	1308.27881	323.62479	-700.97821	974.53625	18.66516	-539.46692	1014.48627	532.94836	-508.24765	868.06940	-47.48818	-448.57684	775.78119	514.14215	-646.60382	885.63074	137.77965	-531.26782	875.55884	295.59503	-833.20795	933.66266	417.99756	-798.49261	452.72562	164.96622	-500.00699	488.66281	358.60397	-807.25647	84.95816	239.06424				
592	5.910	-472.12546	1409.57507	212.99348	-664.59662	1517.22192	260.96829	-675.20435	1426.92358	116.80605	-486.50537	1346.90002	75.95511	-745.32672	1277.11548	107.15414	-532.50574	1275.59998	406.09760				-748.50562	1308.09070	318.26389	-693.94830	973.76147	13.88101	-538.20349	1015.09747	531.14929	-502.81165	866.31116	-50.88910	-447.52298	775.69110	512.63068	-643.92841	885.04633	135.06010	-528.78296	874.50555	292.74408	-830.31244	934.39136	413.86795	-797.05542	452.19138	163.32526	-500.79425	486.06390	357.04199	-806.86896	85.08716	238.56058				
593	5.920	-468.09375	1408.81384	209.65190	-660.38477	1516.54492	256.05634	-670.14032	1425.17810	112.33518	-481.87122	1344.99402	72.20531	-740.42499	1276.35571	101.63141	-529.51099	1275.49756	402.16592				-745.11877	1308.10156	313.35129	-687.14392	973.93433	9.43324	-536.18457	1015.25012	528.40674	-496.53833	864.50745	-54.52257	-447.18854	775.86090	511.40302	-639.80231	883.36902	131.90730	-525.96912	873.54156	290.77219	-827.52887	934.88641	409.77429	-795.34467	452.04211	161.27269	-501.64691	484.40115	355.99466	-806.50305	85.16032	238.29581				
594	5.930	-463.41263	1407.13953	205.74277	-655.87231	1514.54260	250.28300	-665.31183	1424.06848	107.86844	-477.04773	1343.07349	68.20063	-734.92053	1275.48462	96.70329	-526.61414	1275.25146	398.95441				-741.51672	1308.10767	308.26770	-680.26569	973.49426	5.17897	-534.34827	1015.18896	525.83698	-491.45645	862.41760	-57.55425	-445.68234	775.60370	509.93594	-636.09509	882.62817	129.43253	-519.97443	874.17426	287.32809	-824.64001	935.15894	405.83960	-793.59418	451.65860	159.99402	-502.59299	481.86734	354.01944	-806.16370	85.14891	238.25096				
595	5.940	-459.60971	1406.03516	201.21941	-651.78162	1514.77917	245.79671	-661.09448	1422.95874	102.59222	-472.47388	1341.93958	64.22952	-729.58960	1274.43420	93.21079	-523.59235	1274.96509	395.48480				-737.64282	1307.90222	303.75558	-673.36493	972.84509	0.68070	-532.36731	1015.59821	523.10199	-486.09708	860.85413	-61.14235	-444.76013	774.99866	507.70154	-632.13202	881.15686	126.74187	-516.00092	873.66101	285.10583	-821.47644	935.73120	401.91998	-792.75293	452.02045	157.09506	-501.94217	480.03979	353.07639	-805.86121	85.16929	238.06464				
596	5.950	-454.77841	1404.62524	196.93202	-647.46753	1513.83386	240.57870	-656.37408	1421.64307	97.64221	-467.95316	1339.74121	60.65060	-724.72174	1273.11523	89.13043	-520.21643	1274.45654	392.09933				-733.84082	1307.17456	299.39069	-666.90741	972.37335	-3.33670	-530.48517	1015.08496	520.47992	-481.01151	859.05920	-64.86691	-443.33765	774.75104	507.13889	-627.61798	879.23364	124.86055	-513.28302	872.18195	281.97934	-818.42004	935.54504	398.51270	-790.94690	450.85336	156.18719	-501.91470	478.27408	351.59991	-805.71240	85.13290	237.78400				
597	5.960	-450.49045	1403.14404	192.86455	-642.84436	1512.78662	235.70535	-651.86664	1419.90393	93.25338	-463.05826	1337.47815	57.26611	-720.09979	1271.90808	85.14568	-516.84137	1274.42090	389.22287				-730.26257	1307.07874	295.39078	-659.65814	971.67834	-4.93385	-528.46942	1015.75708	517.86047	-475.99380	857.18463	-68.45810	-441.14859	774.32727	505.07407	-624.02063	878.08728	121.24642	-510.64005	871.27856	280.44681	-814.57092	935.18945	394.83063	-789.43878	451.28238	154.20105	-500.88257	475.76190	349.71021	-805.19250	84.65344	237.78993	-504.90244	104.59399	224.90302	
598	5.970	-446.30524	1401.67078	189.78276	-638.44031	1511.78943	230.70671	-647.04144	1418.28894	88.58937	-458.90988	1335.31201	55.07449	-715.26404	1270.53760	81.29671	-512.43738	1274.07642	386.00299				-726.19232	1305.92981	291.81650	-652.99060	971.10260	-9.08111	-525.88495	1015.77838	515.95911	-471.32031	855.02002	-71.13815	-439.88306	774.02380	503.90726	-619.91583	876.91626	119.23031	-507.38257	869.29175	277.92041	-811.11298	935.14600	391.90448	-787.80511	450.85950	152.92526	-498.98267	473.81717	347.99384	-804.86041	84.07802	237.46469				
599	5.980	-441.72076	1399.93225	185.61610	-633.70099	1510.78333	225.88963	-642.16016	1416.24866	84.48983	-454.14844	1332.81921	50.65052	-710.59351	1269.25354	77.79773	-509.06485	1273.31958	382.81848				-722.02765	1305.59863	287.87024	-646.66034	970.26190	-11.42366	-523.43707	1015.37750	513.08569	-466.50775	853.36432	-74.08219	-437.52948	773.20532	501.82858	-616.01184	875.75525	117.76621	-504.42639	868.76013	275.36844	-807.73151	934.67017	389.10645	-785.71826	449.82770	151.08476	-497.47202	472.22900	345.18161	-804.51874	83.99026	237.04233	-500.42606	101.57093	210.89140	
